solid OpenSCAD_Model
  facet normal 0.998027 0.0627903 0
    outer loop
      vertex 1.4 0 14
      vertex 1.38896 0.175467 0
      vertex 1.38896 0.175467 14
    endloop
  endfacet
  facet normal 0.998027 0.0627903 0
    outer loop
      vertex 1.38896 0.175467 0
      vertex 1.4 0 14
      vertex 1.4 0 0
    endloop
  endfacet
  facet normal 0.982287 0.187382 0
    outer loop
      vertex 1.38896 0.175467 14
      vertex 1.35602 0.348166 0
      vertex 1.35602 0.348166 14
    endloop
  endfacet
  facet normal 0.982287 0.187382 0
    outer loop
      vertex 1.35602 0.348166 0
      vertex 1.38896 0.175467 14
      vertex 1.38896 0.175467 0
    endloop
  endfacet
  facet normal 0.951057 0.309017 0
    outer loop
      vertex 1.35602 0.348166 14
      vertex 1.30169 0.515374 0
      vertex 1.30169 0.515374 14
    endloop
  endfacet
  facet normal 0.951057 0.309017 0
    outer loop
      vertex 1.30169 0.515374 0
      vertex 1.35602 0.348166 14
      vertex 1.35602 0.348166 0
    endloop
  endfacet
  facet normal 0.904827 0.425779 0
    outer loop
      vertex 1.30169 0.515374 14
      vertex 1.22683 0.674455 0
      vertex 1.22683 0.674455 14
    endloop
  endfacet
  facet normal 0.904827 0.425779 0
    outer loop
      vertex 1.22683 0.674455 0
      vertex 1.30169 0.515374 14
      vertex 1.30169 0.515374 0
    endloop
  endfacet
  facet normal 0.844328 0.535827 0
    outer loop
      vertex 1.22683 0.674455 14
      vertex 1.13262 0.822899 0
      vertex 1.13262 0.822899 14
    endloop
  endfacet
  facet normal 0.844328 0.535827 0
    outer loop
      vertex 1.13262 0.822899 0
      vertex 1.22683 0.674455 14
      vertex 1.22683 0.674455 0
    endloop
  endfacet
  facet normal 0.770513 0.637424 0
    outer loop
      vertex 1.13262 0.822899 14
      vertex 1.02056 0.958366 0
      vertex 1.02056 0.958366 14
    endloop
  endfacet
  facet normal 0.770513 0.637424 0
    outer loop
      vertex 1.02056 0.958366 0
      vertex 1.13262 0.822899 14
      vertex 1.13262 0.822899 0
    endloop
  endfacet
  facet normal 0.684547 0.728969 -0
    outer loop
      vertex 1.02056 0.958366 0
      vertex 0.892394 1.07872 14
      vertex 1.02056 0.958366 14
    endloop
  endfacet
  facet normal 0.684547 0.728969 0
    outer loop
      vertex 0.892394 1.07872 14
      vertex 1.02056 0.958366 0
      vertex 0.892394 1.07872 0
    endloop
  endfacet
  facet normal 0.587785 0.809017 -0
    outer loop
      vertex 0.892394 1.07872 0
      vertex 0.750158 1.18206 14
      vertex 0.892394 1.07872 14
    endloop
  endfacet
  facet normal 0.587785 0.809017 0
    outer loop
      vertex 0.750158 1.18206 14
      vertex 0.892394 1.07872 0
      vertex 0.750158 1.18206 0
    endloop
  endfacet
  facet normal 0.481754 0.876307 -0
    outer loop
      vertex 0.750158 1.18206 0
      vertex 0.596091 1.26676 14
      vertex 0.750158 1.18206 14
    endloop
  endfacet
  facet normal 0.481754 0.876307 0
    outer loop
      vertex 0.596091 1.26676 14
      vertex 0.750158 1.18206 0
      vertex 0.596091 1.26676 0
    endloop
  endfacet
  facet normal 0.368124 0.929777 -0
    outer loop
      vertex 0.596091 1.26676 0
      vertex 0.432624 1.33148 14
      vertex 0.596091 1.26676 14
    endloop
  endfacet
  facet normal 0.368124 0.929777 0
    outer loop
      vertex 0.432624 1.33148 14
      vertex 0.596091 1.26676 0
      vertex 0.432624 1.33148 0
    endloop
  endfacet
  facet normal 0.24869 0.968583 -0
    outer loop
      vertex 0.432624 1.33148 0
      vertex 0.262334 1.3752 14
      vertex 0.432624 1.33148 14
    endloop
  endfacet
  facet normal 0.24869 0.968583 0
    outer loop
      vertex 0.262334 1.3752 14
      vertex 0.432624 1.33148 0
      vertex 0.262334 1.3752 0
    endloop
  endfacet
  facet normal 0.125333 0.992115 -0
    outer loop
      vertex 0.262334 1.3752 0
      vertex 0.0879067 1.39724 14
      vertex 0.262334 1.3752 14
    endloop
  endfacet
  facet normal 0.125333 0.992115 0
    outer loop
      vertex 0.0879067 1.39724 14
      vertex 0.262334 1.3752 0
      vertex 0.0879067 1.39724 0
    endloop
  endfacet
  facet normal 0 1 -0
    outer loop
      vertex 0.0879067 1.39724 0
      vertex -0.0879067 1.39724 14
      vertex 0.0879067 1.39724 14
    endloop
  endfacet
  facet normal 0 1 0
    outer loop
      vertex -0.0879067 1.39724 14
      vertex 0.0879067 1.39724 0
      vertex -0.0879067 1.39724 0
    endloop
  endfacet
  facet normal -0.125333 0.992115 0
    outer loop
      vertex -0.0879067 1.39724 0
      vertex -0.262334 1.3752 14
      vertex -0.0879067 1.39724 14
    endloop
  endfacet
  facet normal -0.125333 0.992115 0
    outer loop
      vertex -0.262334 1.3752 14
      vertex -0.0879067 1.39724 0
      vertex -0.262334 1.3752 0
    endloop
  endfacet
  facet normal -0.24869 0.968583 0
    outer loop
      vertex -0.262334 1.3752 0
      vertex -0.432624 1.33148 14
      vertex -0.262334 1.3752 14
    endloop
  endfacet
  facet normal -0.24869 0.968583 0
    outer loop
      vertex -0.432624 1.33148 14
      vertex -0.262334 1.3752 0
      vertex -0.432624 1.33148 0
    endloop
  endfacet
  facet normal -0.368124 0.929777 0
    outer loop
      vertex -0.432624 1.33148 0
      vertex -0.596091 1.26676 14
      vertex -0.432624 1.33148 14
    endloop
  endfacet
  facet normal -0.368124 0.929777 0
    outer loop
      vertex -0.596091 1.26676 14
      vertex -0.432624 1.33148 0
      vertex -0.596091 1.26676 0
    endloop
  endfacet
  facet normal -0.481754 0.876307 0
    outer loop
      vertex -0.596091 1.26676 0
      vertex -0.750158 1.18206 14
      vertex -0.596091 1.26676 14
    endloop
  endfacet
  facet normal -0.481754 0.876307 0
    outer loop
      vertex -0.750158 1.18206 14
      vertex -0.596091 1.26676 0
      vertex -0.750158 1.18206 0
    endloop
  endfacet
  facet normal -0.587785 0.809017 0
    outer loop
      vertex -0.750158 1.18206 0
      vertex -0.892394 1.07872 14
      vertex -0.750158 1.18206 14
    endloop
  endfacet
  facet normal -0.587785 0.809017 0
    outer loop
      vertex -0.892394 1.07872 14
      vertex -0.750158 1.18206 0
      vertex -0.892394 1.07872 0
    endloop
  endfacet
  facet normal -0.684547 0.728969 0
    outer loop
      vertex -0.892394 1.07872 0
      vertex -1.02056 0.958366 14
      vertex -0.892394 1.07872 14
    endloop
  endfacet
  facet normal -0.684547 0.728969 0
    outer loop
      vertex -1.02056 0.958366 14
      vertex -0.892394 1.07872 0
      vertex -1.02056 0.958366 0
    endloop
  endfacet
  facet normal -0.770513 0.637424 0
    outer loop
      vertex -1.13262 0.822899 0
      vertex -1.02056 0.958366 14
      vertex -1.02056 0.958366 0
    endloop
  endfacet
  facet normal -0.770513 0.637424 0
    outer loop
      vertex -1.02056 0.958366 14
      vertex -1.13262 0.822899 0
      vertex -1.13262 0.822899 14
    endloop
  endfacet
  facet normal -0.844328 0.535827 0
    outer loop
      vertex -1.22683 0.674455 0
      vertex -1.13262 0.822899 14
      vertex -1.13262 0.822899 0
    endloop
  endfacet
  facet normal -0.844328 0.535827 0
    outer loop
      vertex -1.13262 0.822899 14
      vertex -1.22683 0.674455 0
      vertex -1.22683 0.674455 14
    endloop
  endfacet
  facet normal -0.904827 0.425779 0
    outer loop
      vertex -1.30169 0.515374 0
      vertex -1.22683 0.674455 14
      vertex -1.22683 0.674455 0
    endloop
  endfacet
  facet normal -0.904827 0.425779 0
    outer loop
      vertex -1.22683 0.674455 14
      vertex -1.30169 0.515374 0
      vertex -1.30169 0.515374 14
    endloop
  endfacet
  facet normal -0.951057 0.309017 0
    outer loop
      vertex -1.35602 0.348166 0
      vertex -1.30169 0.515374 14
      vertex -1.30169 0.515374 0
    endloop
  endfacet
  facet normal -0.951057 0.309017 0
    outer loop
      vertex -1.30169 0.515374 14
      vertex -1.35602 0.348166 0
      vertex -1.35602 0.348166 14
    endloop
  endfacet
  facet normal -0.982287 0.187382 0
    outer loop
      vertex -1.38896 0.175467 0
      vertex -1.35602 0.348166 14
      vertex -1.35602 0.348166 0
    endloop
  endfacet
  facet normal -0.982287 0.187382 0
    outer loop
      vertex -1.35602 0.348166 14
      vertex -1.38896 0.175467 0
      vertex -1.38896 0.175467 14
    endloop
  endfacet
  facet normal -0.998027 0.0627903 0
    outer loop
      vertex -1.4 1.71451e-16 0
      vertex -1.38896 0.175467 14
      vertex -1.38896 0.175467 0
    endloop
  endfacet
  facet normal -0.998027 0.0627903 0
    outer loop
      vertex -1.38896 0.175467 14
      vertex -1.4 1.71451e-16 0
      vertex -1.4 1.71451e-16 14
    endloop
  endfacet
  facet normal -0.998027 -0.0627903 0
    outer loop
      vertex -1.38896 -0.175467 0
      vertex -1.4 1.71451e-16 14
      vertex -1.4 1.71451e-16 0
    endloop
  endfacet
  facet normal -0.998027 -0.0627903 0
    outer loop
      vertex -1.4 1.71451e-16 14
      vertex -1.38896 -0.175467 0
      vertex -1.38896 -0.175467 14
    endloop
  endfacet
  facet normal -0.982287 -0.187382 0
    outer loop
      vertex -1.35602 -0.348166 0
      vertex -1.38896 -0.175467 14
      vertex -1.38896 -0.175467 0
    endloop
  endfacet
  facet normal -0.982287 -0.187382 0
    outer loop
      vertex -1.38896 -0.175467 14
      vertex -1.35602 -0.348166 0
      vertex -1.35602 -0.348166 14
    endloop
  endfacet
  facet normal -0.951057 -0.309017 0
    outer loop
      vertex -1.30169 -0.515374 0
      vertex -1.35602 -0.348166 14
      vertex -1.35602 -0.348166 0
    endloop
  endfacet
  facet normal -0.951057 -0.309017 0
    outer loop
      vertex -1.35602 -0.348166 14
      vertex -1.30169 -0.515374 0
      vertex -1.30169 -0.515374 14
    endloop
  endfacet
  facet normal -0.904827 -0.425779 0
    outer loop
      vertex -1.22683 -0.674455 0
      vertex -1.30169 -0.515374 14
      vertex -1.30169 -0.515374 0
    endloop
  endfacet
  facet normal -0.904827 -0.425779 0
    outer loop
      vertex -1.30169 -0.515374 14
      vertex -1.22683 -0.674455 0
      vertex -1.22683 -0.674455 14
    endloop
  endfacet
  facet normal -0.844328 -0.535827 0
    outer loop
      vertex -1.13262 -0.822899 0
      vertex -1.22683 -0.674455 14
      vertex -1.22683 -0.674455 0
    endloop
  endfacet
  facet normal -0.844328 -0.535827 0
    outer loop
      vertex -1.22683 -0.674455 14
      vertex -1.13262 -0.822899 0
      vertex -1.13262 -0.822899 14
    endloop
  endfacet
  facet normal -0.770513 -0.637424 0
    outer loop
      vertex -1.02056 -0.958366 0
      vertex -1.13262 -0.822899 14
      vertex -1.13262 -0.822899 0
    endloop
  endfacet
  facet normal -0.770513 -0.637424 0
    outer loop
      vertex -1.13262 -0.822899 14
      vertex -1.02056 -0.958366 0
      vertex -1.02056 -0.958366 14
    endloop
  endfacet
  facet normal -0.684547 -0.728969 0
    outer loop
      vertex -1.02056 -0.958366 0
      vertex -0.892394 -1.07872 14
      vertex -1.02056 -0.958366 14
    endloop
  endfacet
  facet normal -0.684547 -0.728969 -0
    outer loop
      vertex -0.892394 -1.07872 14
      vertex -1.02056 -0.958366 0
      vertex -0.892394 -1.07872 0
    endloop
  endfacet
  facet normal -0.587785 -0.809017 0
    outer loop
      vertex -0.892394 -1.07872 0
      vertex -0.750158 -1.18206 14
      vertex -0.892394 -1.07872 14
    endloop
  endfacet
  facet normal -0.587785 -0.809017 -0
    outer loop
      vertex -0.750158 -1.18206 14
      vertex -0.892394 -1.07872 0
      vertex -0.750158 -1.18206 0
    endloop
  endfacet
  facet normal -0.481754 -0.876307 0
    outer loop
      vertex -0.750158 -1.18206 0
      vertex -0.596091 -1.26676 14
      vertex -0.750158 -1.18206 14
    endloop
  endfacet
  facet normal -0.481754 -0.876307 -0
    outer loop
      vertex -0.596091 -1.26676 14
      vertex -0.750158 -1.18206 0
      vertex -0.596091 -1.26676 0
    endloop
  endfacet
  facet normal -0.368124 -0.929777 0
    outer loop
      vertex -0.596091 -1.26676 0
      vertex -0.432624 -1.33148 14
      vertex -0.596091 -1.26676 14
    endloop
  endfacet
  facet normal -0.368124 -0.929777 -0
    outer loop
      vertex -0.432624 -1.33148 14
      vertex -0.596091 -1.26676 0
      vertex -0.432624 -1.33148 0
    endloop
  endfacet
  facet normal -0.24869 -0.968583 0
    outer loop
      vertex -0.432624 -1.33148 0
      vertex -0.262334 -1.3752 14
      vertex -0.432624 -1.33148 14
    endloop
  endfacet
  facet normal -0.24869 -0.968583 -0
    outer loop
      vertex -0.262334 -1.3752 14
      vertex -0.432624 -1.33148 0
      vertex -0.262334 -1.3752 0
    endloop
  endfacet
  facet normal -0.125333 -0.992115 0
    outer loop
      vertex -0.262334 -1.3752 0
      vertex -0.0879067 -1.39724 14
      vertex -0.262334 -1.3752 14
    endloop
  endfacet
  facet normal -0.125333 -0.992115 -0
    outer loop
      vertex -0.0879067 -1.39724 14
      vertex -0.262334 -1.3752 0
      vertex -0.0879067 -1.39724 0
    endloop
  endfacet
  facet normal 0 -1 0
    outer loop
      vertex -0.0879067 -1.39724 0
      vertex 0.0879067 -1.39724 14
      vertex -0.0879067 -1.39724 14
    endloop
  endfacet
  facet normal 0 -1 -0
    outer loop
      vertex 0.0879067 -1.39724 14
      vertex -0.0879067 -1.39724 0
      vertex 0.0879067 -1.39724 0
    endloop
  endfacet
  facet normal 0.125333 -0.992115 0
    outer loop
      vertex 0.0879067 -1.39724 0
      vertex 0.262334 -1.3752 14
      vertex 0.0879067 -1.39724 14
    endloop
  endfacet
  facet normal 0.125333 -0.992115 0
    outer loop
      vertex 0.262334 -1.3752 14
      vertex 0.0879067 -1.39724 0
      vertex 0.262334 -1.3752 0
    endloop
  endfacet
  facet normal 0.24869 -0.968583 0
    outer loop
      vertex 0.262334 -1.3752 0
      vertex 0.432624 -1.33148 14
      vertex 0.262334 -1.3752 14
    endloop
  endfacet
  facet normal 0.24869 -0.968583 0
    outer loop
      vertex 0.432624 -1.33148 14
      vertex 0.262334 -1.3752 0
      vertex 0.432624 -1.33148 0
    endloop
  endfacet
  facet normal 0.368124 -0.929777 0
    outer loop
      vertex 0.432624 -1.33148 0
      vertex 0.596091 -1.26676 14
      vertex 0.432624 -1.33148 14
    endloop
  endfacet
  facet normal 0.368124 -0.929777 0
    outer loop
      vertex 0.596091 -1.26676 14
      vertex 0.432624 -1.33148 0
      vertex 0.596091 -1.26676 0
    endloop
  endfacet
  facet normal 0.481754 -0.876307 0
    outer loop
      vertex 0.596091 -1.26676 0
      vertex 0.750158 -1.18206 14
      vertex 0.596091 -1.26676 14
    endloop
  endfacet
  facet normal 0.481754 -0.876307 0
    outer loop
      vertex 0.750158 -1.18206 14
      vertex 0.596091 -1.26676 0
      vertex 0.750158 -1.18206 0
    endloop
  endfacet
  facet normal 0.587785 -0.809017 0
    outer loop
      vertex 0.750158 -1.18206 0
      vertex 0.892394 -1.07872 14
      vertex 0.750158 -1.18206 14
    endloop
  endfacet
  facet normal 0.587785 -0.809017 0
    outer loop
      vertex 0.892394 -1.07872 14
      vertex 0.750158 -1.18206 0
      vertex 0.892394 -1.07872 0
    endloop
  endfacet
  facet normal 0.684547 -0.728969 0
    outer loop
      vertex 0.892394 -1.07872 0
      vertex 1.02056 -0.958366 14
      vertex 0.892394 -1.07872 14
    endloop
  endfacet
  facet normal 0.684547 -0.728969 0
    outer loop
      vertex 1.02056 -0.958366 14
      vertex 0.892394 -1.07872 0
      vertex 1.02056 -0.958366 0
    endloop
  endfacet
  facet normal 0.770513 -0.637424 0
    outer loop
      vertex 1.02056 -0.958366 14
      vertex 1.13262 -0.822899 0
      vertex 1.13262 -0.822899 14
    endloop
  endfacet
  facet normal 0.770513 -0.637424 0
    outer loop
      vertex 1.13262 -0.822899 0
      vertex 1.02056 -0.958366 14
      vertex 1.02056 -0.958366 0
    endloop
  endfacet
  facet normal 0.844328 -0.535827 0
    outer loop
      vertex 1.13262 -0.822899 14
      vertex 1.22683 -0.674455 0
      vertex 1.22683 -0.674455 14
    endloop
  endfacet
  facet normal 0.844328 -0.535827 0
    outer loop
      vertex 1.22683 -0.674455 0
      vertex 1.13262 -0.822899 14
      vertex 1.13262 -0.822899 0
    endloop
  endfacet
  facet normal 0.904827 -0.425779 0
    outer loop
      vertex 1.22683 -0.674455 14
      vertex 1.30169 -0.515374 0
      vertex 1.30169 -0.515374 14
    endloop
  endfacet
  facet normal 0.904827 -0.425779 0
    outer loop
      vertex 1.30169 -0.515374 0
      vertex 1.22683 -0.674455 14
      vertex 1.22683 -0.674455 0
    endloop
  endfacet
  facet normal 0.951057 -0.309017 0
    outer loop
      vertex 1.30169 -0.515374 14
      vertex 1.35602 -0.348166 0
      vertex 1.35602 -0.348166 14
    endloop
  endfacet
  facet normal 0.951057 -0.309017 0
    outer loop
      vertex 1.35602 -0.348166 0
      vertex 1.30169 -0.515374 14
      vertex 1.30169 -0.515374 0
    endloop
  endfacet
  facet normal 0.982287 -0.187382 0
    outer loop
      vertex 1.35602 -0.348166 14
      vertex 1.38896 -0.175467 0
      vertex 1.38896 -0.175467 14
    endloop
  endfacet
  facet normal 0.982287 -0.187382 0
    outer loop
      vertex 1.38896 -0.175467 0
      vertex 1.35602 -0.348166 14
      vertex 1.35602 -0.348166 0
    endloop
  endfacet
  facet normal 0.998027 -0.0627903 0
    outer loop
      vertex 1.38896 -0.175467 14
      vertex 1.4 0 0
      vertex 1.4 0 14
    endloop
  endfacet
  facet normal 0.998027 -0.0627903 0
    outer loop
      vertex 1.4 0 0
      vertex 1.38896 -0.175467 14
      vertex 1.38896 -0.175467 0
    endloop
  endfacet
  facet normal 0 0 -1
    outer loop
      vertex 1.38896 -0.175467 0
      vertex 1.38896 0.175467 0
      vertex 1.4 0 0
    endloop
  endfacet
  facet normal 0 0 -1
    outer loop
      vertex 1.35602 -0.348166 0
      vertex 1.38896 0.175467 0
      vertex 1.38896 -0.175467 0
    endloop
  endfacet
  facet normal 0 0 -1
    outer loop
      vertex 1.35602 -0.348166 0
      vertex 1.35602 0.348166 0
      vertex 1.38896 0.175467 0
    endloop
  endfacet
  facet normal 0 0 -1
    outer loop
      vertex 1.30169 -0.515374 0
      vertex 1.35602 0.348166 0
      vertex 1.35602 -0.348166 0
    endloop
  endfacet
  facet normal 0 0 -1
    outer loop
      vertex 1.30169 -0.515374 0
      vertex 1.30169 0.515374 0
      vertex 1.35602 0.348166 0
    endloop
  endfacet
  facet normal 0 0 -1
    outer loop
      vertex 1.22683 -0.674455 0
      vertex 1.30169 0.515374 0
      vertex 1.30169 -0.515374 0
    endloop
  endfacet
  facet normal 0 0 -1
    outer loop
      vertex 1.22683 -0.674455 0
      vertex 1.22683 0.674455 0
      vertex 1.30169 0.515374 0
    endloop
  endfacet
  facet normal 0 0 -1
    outer loop
      vertex 1.13262 -0.822899 0
      vertex 1.22683 0.674455 0
      vertex 1.22683 -0.674455 0
    endloop
  endfacet
  facet normal 0 0 -1
    outer loop
      vertex 1.13262 -0.822899 0
      vertex 1.13262 0.822899 0
      vertex 1.22683 0.674455 0
    endloop
  endfacet
  facet normal 0 0 -1
    outer loop
      vertex 1.02056 -0.958366 0
      vertex 1.13262 0.822899 0
      vertex 1.13262 -0.822899 0
    endloop
  endfacet
  facet normal 0 0 -1
    outer loop
      vertex 1.02056 -0.958366 0
      vertex 1.02056 0.958366 0
      vertex 1.13262 0.822899 0
    endloop
  endfacet
  facet normal 0 0 -1
    outer loop
      vertex 0.892394 -1.07872 0
      vertex 1.02056 0.958366 0
      vertex 1.02056 -0.958366 0
    endloop
  endfacet
  facet normal 0 0 -1
    outer loop
      vertex 0.892394 -1.07872 0
      vertex 0.892394 1.07872 0
      vertex 1.02056 0.958366 0
    endloop
  endfacet
  facet normal 0 0 -1
    outer loop
      vertex 0.750158 -1.18206 0
      vertex 0.892394 1.07872 0
      vertex 0.892394 -1.07872 0
    endloop
  endfacet
  facet normal 0 0 -1
    outer loop
      vertex 0.750158 -1.18206 0
      vertex 0.750158 1.18206 0
      vertex 0.892394 1.07872 0
    endloop
  endfacet
  facet normal 0 0 -1
    outer loop
      vertex 0.596091 -1.26676 0
      vertex 0.750158 1.18206 0
      vertex 0.750158 -1.18206 0
    endloop
  endfacet
  facet normal 0 0 -1
    outer loop
      vertex 0.596091 -1.26676 0
      vertex 0.596091 1.26676 0
      vertex 0.750158 1.18206 0
    endloop
  endfacet
  facet normal 0 0 -1
    outer loop
      vertex 0.432624 -1.33148 0
      vertex 0.596091 1.26676 0
      vertex 0.596091 -1.26676 0
    endloop
  endfacet
  facet normal 0 0 -1
    outer loop
      vertex 0.432624 -1.33148 0
      vertex 0.432624 1.33148 0
      vertex 0.596091 1.26676 0
    endloop
  endfacet
  facet normal 0 0 -1
    outer loop
      vertex 0.262334 -1.3752 0
      vertex 0.432624 1.33148 0
      vertex 0.432624 -1.33148 0
    endloop
  endfacet
  facet normal 0 0 -1
    outer loop
      vertex 0.262334 -1.3752 0
      vertex 0.262334 1.3752 0
      vertex 0.432624 1.33148 0
    endloop
  endfacet
  facet normal 0 0 -1
    outer loop
      vertex 0.0879067 -1.39724 0
      vertex 0.262334 1.3752 0
      vertex 0.262334 -1.3752 0
    endloop
  endfacet
  facet normal 0 0 -1
    outer loop
      vertex 0.0879067 -1.39724 0
      vertex 0.0879067 1.39724 0
      vertex 0.262334 1.3752 0
    endloop
  endfacet
  facet normal 0 0 -1
    outer loop
      vertex -0.0879067 -1.39724 0
      vertex 0.0879067 1.39724 0
      vertex 0.0879067 -1.39724 0
    endloop
  endfacet
  facet normal 0 0 -1
    outer loop
      vertex -0.0879067 -1.39724 0
      vertex -0.0879067 1.39724 0
      vertex 0.0879067 1.39724 0
    endloop
  endfacet
  facet normal 0 0 -1
    outer loop
      vertex -0.262334 -1.3752 0
      vertex -0.0879067 1.39724 0
      vertex -0.0879067 -1.39724 0
    endloop
  endfacet
  facet normal 0 0 -1
    outer loop
      vertex -0.262334 -1.3752 0
      vertex -0.262334 1.3752 0
      vertex -0.0879067 1.39724 0
    endloop
  endfacet
  facet normal 0 0 -1
    outer loop
      vertex -0.432624 -1.33148 0
      vertex -0.262334 1.3752 0
      vertex -0.262334 -1.3752 0
    endloop
  endfacet
  facet normal 0 0 -1
    outer loop
      vertex -0.432624 -1.33148 0
      vertex -0.432624 1.33148 0
      vertex -0.262334 1.3752 0
    endloop
  endfacet
  facet normal 0 0 -1
    outer loop
      vertex -0.596091 -1.26676 0
      vertex -0.432624 1.33148 0
      vertex -0.432624 -1.33148 0
    endloop
  endfacet
  facet normal 0 0 -1
    outer loop
      vertex -0.596091 -1.26676 0
      vertex -0.596091 1.26676 0
      vertex -0.432624 1.33148 0
    endloop
  endfacet
  facet normal 0 0 -1
    outer loop
      vertex -0.750158 -1.18206 0
      vertex -0.596091 1.26676 0
      vertex -0.596091 -1.26676 0
    endloop
  endfacet
  facet normal 0 0 -1
    outer loop
      vertex -0.750158 -1.18206 0
      vertex -0.750158 1.18206 0
      vertex -0.596091 1.26676 0
    endloop
  endfacet
  facet normal 0 0 -1
    outer loop
      vertex -0.892394 -1.07872 0
      vertex -0.750158 1.18206 0
      vertex -0.750158 -1.18206 0
    endloop
  endfacet
  facet normal 0 0 -1
    outer loop
      vertex -0.892394 -1.07872 0
      vertex -0.892394 1.07872 0
      vertex -0.750158 1.18206 0
    endloop
  endfacet
  facet normal 0 0 -1
    outer loop
      vertex -1.02056 -0.958366 0
      vertex -0.892394 1.07872 0
      vertex -0.892394 -1.07872 0
    endloop
  endfacet
  facet normal 0 0 -1
    outer loop
      vertex -1.02056 -0.958366 0
      vertex -1.02056 0.958366 0
      vertex -0.892394 1.07872 0
    endloop
  endfacet
  facet normal 0 0 -1
    outer loop
      vertex -1.13262 -0.822899 0
      vertex -1.02056 0.958366 0
      vertex -1.02056 -0.958366 0
    endloop
  endfacet
  facet normal 0 0 -1
    outer loop
      vertex -1.13262 -0.822899 0
      vertex -1.13262 0.822899 0
      vertex -1.02056 0.958366 0
    endloop
  endfacet
  facet normal 0 0 -1
    outer loop
      vertex -1.22683 -0.674455 0
      vertex -1.13262 0.822899 0
      vertex -1.13262 -0.822899 0
    endloop
  endfacet
  facet normal 0 0 -1
    outer loop
      vertex -1.22683 -0.674455 0
      vertex -1.22683 0.674455 0
      vertex -1.13262 0.822899 0
    endloop
  endfacet
  facet normal 0 0 -1
    outer loop
      vertex -1.30169 -0.515374 0
      vertex -1.22683 0.674455 0
      vertex -1.22683 -0.674455 0
    endloop
  endfacet
  facet normal 0 0 -1
    outer loop
      vertex -1.30169 -0.515374 0
      vertex -1.30169 0.515374 0
      vertex -1.22683 0.674455 0
    endloop
  endfacet
  facet normal 0 0 -1
    outer loop
      vertex -1.35602 -0.348166 0
      vertex -1.30169 0.515374 0
      vertex -1.30169 -0.515374 0
    endloop
  endfacet
  facet normal 0 0 -1
    outer loop
      vertex -1.35602 -0.348166 0
      vertex -1.35602 0.348166 0
      vertex -1.30169 0.515374 0
    endloop
  endfacet
  facet normal 0 0 -1
    outer loop
      vertex -1.38896 -0.175467 0
      vertex -1.35602 0.348166 0
      vertex -1.35602 -0.348166 0
    endloop
  endfacet
  facet normal 0 0 -1
    outer loop
      vertex -1.38896 -0.175467 0
      vertex -1.38896 0.175467 0
      vertex -1.35602 0.348166 0
    endloop
  endfacet
  facet normal 0 -0 -1
    outer loop
      vertex -1.38896 0.175467 0
      vertex -1.38896 -0.175467 0
      vertex -1.4 1.71451e-16 0
    endloop
  endfacet
  facet normal 0 0 1
    outer loop
      vertex 1.38896 0.175467 14
      vertex 1.38896 -0.175467 14
      vertex 1.4 0 14
    endloop
  endfacet
  facet normal 0 0 1
    outer loop
      vertex 1.35602 0.348166 14
      vertex 1.38896 -0.175467 14
      vertex 1.38896 0.175467 14
    endloop
  endfacet
  facet normal 0 0 1
    outer loop
      vertex 1.35602 0.348166 14
      vertex 1.35602 -0.348166 14
      vertex 1.38896 -0.175467 14
    endloop
  endfacet
  facet normal 0 0 1
    outer loop
      vertex 1.30169 0.515374 14
      vertex 1.35602 -0.348166 14
      vertex 1.35602 0.348166 14
    endloop
  endfacet
  facet normal 0 0 1
    outer loop
      vertex 1.30169 0.515374 14
      vertex 1.30169 -0.515374 14
      vertex 1.35602 -0.348166 14
    endloop
  endfacet
  facet normal 0 0 1
    outer loop
      vertex 1.22683 0.674455 14
      vertex 1.30169 -0.515374 14
      vertex 1.30169 0.515374 14
    endloop
  endfacet
  facet normal 0 0 1
    outer loop
      vertex 1.22683 0.674455 14
      vertex 1.22683 -0.674455 14
      vertex 1.30169 -0.515374 14
    endloop
  endfacet
  facet normal 0 0 1
    outer loop
      vertex 1.13262 0.822899 14
      vertex 1.22683 -0.674455 14
      vertex 1.22683 0.674455 14
    endloop
  endfacet
  facet normal 0 0 1
    outer loop
      vertex 1.13262 0.822899 14
      vertex 1.13262 -0.822899 14
      vertex 1.22683 -0.674455 14
    endloop
  endfacet
  facet normal 0 0 1
    outer loop
      vertex 1.02056 0.958366 14
      vertex 1.13262 -0.822899 14
      vertex 1.13262 0.822899 14
    endloop
  endfacet
  facet normal 0 0 1
    outer loop
      vertex 1.02056 0.958366 14
      vertex 1.02056 -0.958366 14
      vertex 1.13262 -0.822899 14
    endloop
  endfacet
  facet normal 0 0 1
    outer loop
      vertex 0.892394 1.07872 14
      vertex 1.02056 -0.958366 14
      vertex 1.02056 0.958366 14
    endloop
  endfacet
  facet normal 0 0 1
    outer loop
      vertex 0.892394 1.07872 14
      vertex 0.892394 -1.07872 14
      vertex 1.02056 -0.958366 14
    endloop
  endfacet
  facet normal 0 0 1
    outer loop
      vertex 0.750158 1.18206 14
      vertex 0.892394 -1.07872 14
      vertex 0.892394 1.07872 14
    endloop
  endfacet
  facet normal 0 0 1
    outer loop
      vertex 0.750158 1.18206 14
      vertex 0.750158 -1.18206 14
      vertex 0.892394 -1.07872 14
    endloop
  endfacet
  facet normal 0 0 1
    outer loop
      vertex 0.596091 1.26676 14
      vertex 0.750158 -1.18206 14
      vertex 0.750158 1.18206 14
    endloop
  endfacet
  facet normal 0 0 1
    outer loop
      vertex 0.596091 1.26676 14
      vertex 0.596091 -1.26676 14
      vertex 0.750158 -1.18206 14
    endloop
  endfacet
  facet normal 0 0 1
    outer loop
      vertex 0.432624 1.33148 14
      vertex 0.596091 -1.26676 14
      vertex 0.596091 1.26676 14
    endloop
  endfacet
  facet normal 0 0 1
    outer loop
      vertex 0.432624 1.33148 14
      vertex 0.432624 -1.33148 14
      vertex 0.596091 -1.26676 14
    endloop
  endfacet
  facet normal 0 0 1
    outer loop
      vertex 0.262334 1.3752 14
      vertex 0.432624 -1.33148 14
      vertex 0.432624 1.33148 14
    endloop
  endfacet
  facet normal 0 0 1
    outer loop
      vertex 0.262334 1.3752 14
      vertex 0.262334 -1.3752 14
      vertex 0.432624 -1.33148 14
    endloop
  endfacet
  facet normal 0 0 1
    outer loop
      vertex 0.0879067 1.39724 14
      vertex 0.262334 -1.3752 14
      vertex 0.262334 1.3752 14
    endloop
  endfacet
  facet normal 0 0 1
    outer loop
      vertex 0.0879067 1.39724 14
      vertex 0.0879067 -1.39724 14
      vertex 0.262334 -1.3752 14
    endloop
  endfacet
  facet normal -0 0 1
    outer loop
      vertex -0.0879067 1.39724 14
      vertex 0.0879067 -1.39724 14
      vertex 0.0879067 1.39724 14
    endloop
  endfacet
  facet normal 0 0 1
    outer loop
      vertex -0.0879067 1.39724 14
      vertex -0.0879067 -1.39724 14
      vertex 0.0879067 -1.39724 14
    endloop
  endfacet
  facet normal -0 0 1
    outer loop
      vertex -0.262334 1.3752 14
      vertex -0.0879067 -1.39724 14
      vertex -0.0879067 1.39724 14
    endloop
  endfacet
  facet normal 0 0 1
    outer loop
      vertex -0.262334 1.3752 14
      vertex -0.262334 -1.3752 14
      vertex -0.0879067 -1.39724 14
    endloop
  endfacet
  facet normal -0 0 1
    outer loop
      vertex -0.432624 1.33148 14
      vertex -0.262334 -1.3752 14
      vertex -0.262334 1.3752 14
    endloop
  endfacet
  facet normal 0 0 1
    outer loop
      vertex -0.432624 1.33148 14
      vertex -0.432624 -1.33148 14
      vertex -0.262334 -1.3752 14
    endloop
  endfacet
  facet normal -0 0 1
    outer loop
      vertex -0.596091 1.26676 14
      vertex -0.432624 -1.33148 14
      vertex -0.432624 1.33148 14
    endloop
  endfacet
  facet normal 0 0 1
    outer loop
      vertex -0.596091 1.26676 14
      vertex -0.596091 -1.26676 14
      vertex -0.432624 -1.33148 14
    endloop
  endfacet
  facet normal -0 0 1
    outer loop
      vertex -0.750158 1.18206 14
      vertex -0.596091 -1.26676 14
      vertex -0.596091 1.26676 14
    endloop
  endfacet
  facet normal 0 0 1
    outer loop
      vertex -0.750158 1.18206 14
      vertex -0.750158 -1.18206 14
      vertex -0.596091 -1.26676 14
    endloop
  endfacet
  facet normal -0 0 1
    outer loop
      vertex -0.892394 1.07872 14
      vertex -0.750158 -1.18206 14
      vertex -0.750158 1.18206 14
    endloop
  endfacet
  facet normal 0 0 1
    outer loop
      vertex -0.892394 1.07872 14
      vertex -0.892394 -1.07872 14
      vertex -0.750158 -1.18206 14
    endloop
  endfacet
  facet normal -0 0 1
    outer loop
      vertex -1.02056 0.958366 14
      vertex -0.892394 -1.07872 14
      vertex -0.892394 1.07872 14
    endloop
  endfacet
  facet normal 0 0 1
    outer loop
      vertex -1.02056 0.958366 14
      vertex -1.02056 -0.958366 14
      vertex -0.892394 -1.07872 14
    endloop
  endfacet
  facet normal -0 0 1
    outer loop
      vertex -1.13262 0.822899 14
      vertex -1.02056 -0.958366 14
      vertex -1.02056 0.958366 14
    endloop
  endfacet
  facet normal 0 0 1
    outer loop
      vertex -1.13262 0.822899 14
      vertex -1.13262 -0.822899 14
      vertex -1.02056 -0.958366 14
    endloop
  endfacet
  facet normal -0 0 1
    outer loop
      vertex -1.22683 0.674455 14
      vertex -1.13262 -0.822899 14
      vertex -1.13262 0.822899 14
    endloop
  endfacet
  facet normal 0 0 1
    outer loop
      vertex -1.22683 0.674455 14
      vertex -1.22683 -0.674455 14
      vertex -1.13262 -0.822899 14
    endloop
  endfacet
  facet normal -0 0 1
    outer loop
      vertex -1.30169 0.515374 14
      vertex -1.22683 -0.674455 14
      vertex -1.22683 0.674455 14
    endloop
  endfacet
  facet normal 0 0 1
    outer loop
      vertex -1.30169 0.515374 14
      vertex -1.30169 -0.515374 14
      vertex -1.22683 -0.674455 14
    endloop
  endfacet
  facet normal -0 0 1
    outer loop
      vertex -1.35602 0.348166 14
      vertex -1.30169 -0.515374 14
      vertex -1.30169 0.515374 14
    endloop
  endfacet
  facet normal 0 0 1
    outer loop
      vertex -1.35602 0.348166 14
      vertex -1.35602 -0.348166 14
      vertex -1.30169 -0.515374 14
    endloop
  endfacet
  facet normal -0 0 1
    outer loop
      vertex -1.38896 0.175467 14
      vertex -1.35602 -0.348166 14
      vertex -1.35602 0.348166 14
    endloop
  endfacet
  facet normal 0 0 1
    outer loop
      vertex -1.38896 0.175467 14
      vertex -1.38896 -0.175467 14
      vertex -1.35602 -0.348166 14
    endloop
  endfacet
  facet normal 0 -0 1
    outer loop
      vertex -1.38896 -0.175467 14
      vertex -1.38896 0.175467 14
      vertex -1.4 1.71451e-16 14
    endloop
  endfacet
endsolid OpenSCAD_Model
